{
  "accessors": [
    {
      "bufferView": 2,
      "componentType": 5126,
      "count": 3264,
      "max": [
        0.7229560017585754,
        0.45625099539756775,
        1.2333600521087646
      ],
      "min": [
        -0.5655530095100403,
        -0.6060240268707275,
        0.0
      ],
      "type": "VEC3"
    },
    {
      "bufferView": 2,
      "byteOffset": 39168,
      "componentType": 5126,
      "count": 3264,
      "max": [
        0.9999315738677979,
        0.9999315738677979,
        1.0
      ],
      "min": [
        -1.0,
        -0.9999315738677979,
        -1.0
      ],
      "type": "VEC3"
    },
    {
      "bufferView": 3,
      "componentType": 5126,
      "count": 3264,
      "max": [
        0.9999988675117493,
        0.9999752640724182,
        0.9998489022254944,
        1.0
      ],
      "min": [
        -0.999993622303009,
        -1.0,
        -1.0,
        -1.0
      ],
      "type": "VEC4"
    },
    {
      "bufferView": 1,
      "componentType": 5126,
      "count": 3264,
      "max": [
        0.9997490048408508,
        0.9930269718170166
      ],
      "min": [
        0.009053000248968601,
        0.00025099999038502574
      ],
      "type": "VEC2"
    },
    {
      "bufferView": 0,
      "componentType": 5125,
      "count": 9054,
      "type": "SCALAR"
    },
    {
      "bufferView": 2,
      "byteOffset": 78336,
      "componentType": 5126,
      "count": 16,
      "max": [
        2.5253429412841797,
        4.911887168884277,
        0.0
      ],
      "min": [
        -3.805159091949463,
        -1.4186149835586548,
        0.0
      ],
      "type": "VEC3"
    },
    {
      "bufferView": 2,
      "byteOffset": 78528,
      "componentType": 5126,
      "count": 16,
      "max": [
        -0.0,
        0.0,
        1.0
      ],
      "min": [
        -0.0,
        0.0,
        1.0
      ],
      "type": "VEC3"
    },
    {
      "bufferView": 3,
      "byteOffset": 52224,
      "componentType": 5126,
      "count": 16,
      "max": [
        -1.0,
        0.0,
        0.0,
        1.0
      ],
      "min": [
        -1.0,
        0.0,
        0.0,
        1.0
      ],
      "type": "VEC4"
    },
    {
      "bufferView": 1,
      "byteOffset": 26112,
      "componentType": 5126,
      "count": 16,
      "max": [
        0.9998999834060669,
        0.9998999834060669
      ],
      "min": [
        9.999999747378752e-05,
        9.999999747378752e-05
      ],
      "type": "VEC2"
    },
    {
      "bufferView": 0,
      "byteOffset": 36216,
      "componentType": 5125,
      "count": 24,
      "type": "SCALAR"
    },
    {
      "bufferView": 2,
      "byteOffset": 78720,
      "componentType": 5126,
      "count": 2432,
      "max": [
        0.9411860108375549,
        1.7199050188064575,
        0.9555590152740479
      ],
      "min": [
        -0.45464301109313965,
        0.4602760076522827,
        0.0021210000850260258
      ],
      "type": "VEC3"
    },
    {
      "bufferView": 2,
      "byteOffset": 107904,
      "componentType": 5126,
      "count": 2432,
      "max": [
        0.9980916380882263,
        0.9995977282524109,
        1.0
      ],
      "min": [
        -0.9980916380882263,
        -0.9986544251441956,
        -1.0
      ],
      "type": "VEC3"
    },
    {
      "bufferView": 3,
      "byteOffset": 52480,
      "componentType": 5126,
      "count": 2432,
      "max": [
        0.9998385310173035,
        0.9999983310699463,
        0.9998489022254944,
        1.0
      ],
      "min": [
        -0.9998689889907837,
        -0.9999976754188538,
        -1.0,
        -1.0
      ],
      "type": "VEC4"
    },
    {
      "bufferView": 1,
      "byteOffset": 26240,
      "componentType": 5126,
      "count": 2432,
      "max": [
        0.9997490048408508,
        0.9930269718170166
      ],
      "min": [
        0.009053000248968601,
        0.00025099999038502574
      ],
      "type": "VEC2"
    },
    {
      "bufferView": 0,
      "byteOffset": 36312,
      "componentType": 5125,
      "count": 7338,
      "type": "SCALAR"
    },
    {
      "bufferView": 2,
      "byteOffset": 137088,
      "componentType": 5126,
      "count": 2304,
      "max": [
        0.45674601197242737,
        2.846282958984375,
        1.2970479726791382
      ],
      "min": [
        -0.4567430019378662,
        1.9327939748764038,
        0.008336000144481659
      ],
      "type": "VEC3"
    },
    {
      "bufferView": 2,
      "byteOffset": 164736,
      "componentType": 5126,
      "count": 2304,
      "max": [
        0.9999990463256836,
        0.9999990463256836,
        1.0
      ],
      "min": [
        -1.0,
        -0.9999990463256836,
        -1.0
      ],
      "type": "VEC3"
    },
    {
      "bufferView": 3,
      "byteOffset": 91392,
      "componentType": 5126,
      "count": 2304,
      "max": [
        0.9999909996986389,
        0.9993986487388611,
        0.9998489022254944,
        1.0
      ],
      "min": [
        -0.9999922513961792,
        -1.0,
        -1.0,
        -1.0
      ],
      "type": "VEC4"
    },
    {
      "bufferView": 1,
      "byteOffset": 45696,
      "componentType": 5126,
      "count": 2304,
      "max": [
        0.9997490048408508,
        0.9930269718170166
      ],
      "min": [
        0.009053000248968601,
        0.00025099999038502574
      ],
      "type": "VEC2"
    },
    {
      "bufferView": 0,
      "byteOffset": 65664,
      "componentType": 5125,
      "count": 7074,
      "type": "SCALAR"
    },
    {
      "bufferView": 2,
      "byteOffset": 192384,
      "componentType": 5126,
      "count": 2368,
      "max": [
        0.45673999190330505,
        4.218924045562744,
        1.2333600521087646
      ],
      "min": [
        -0.5280709862709045,
        3.149714946746826,
        0.008336000144481659
      ],
      "type": "VEC3"
    },
    {
      "bufferView": 2,
      "byteOffset": 220800,
      "componentType": 5126,
      "count": 2368,
      "max": [
        0.9992624521255493,
        0.9999194145202637,
        1.0
      ],
      "min": [
        -0.9998118281364441,
        -0.9999194145202637,
        -1.0
      ],
      "type": "VEC3"
    },
    {
      "bufferView": 3,
      "byteOffset": 128256,
      "componentType": 5126,
      "count": 2368,
      "max": [
        0.9999193549156189,
        0.9999978542327881,
        0.9998489022254944,
        1.0
      ],
      "min": [
        -0.9999193549156189,
        -0.9999790787696838,
        -1.0,
        -1.0
      ],
      "type": "VEC4"
    },
    {
      "bufferView": 1,
      "byteOffset": 64128,
      "componentType": 5126,
      "count": 2368,
      "max": [
        0.9997490048408508,
        0.9930269718170166
      ],
      "min": [
        0.009053000248968601,
        0.00025099999038502574
      ],
      "type": "VEC2"
    },
    {
      "bufferView": 0,
      "byteOffset": 93960,
      "componentType": 5125,
      "count": 7206,
      "type": "SCALAR"
    },
    {
      "bufferView": 2,
      "byteOffset": 249216,
      "componentType": 5126,
      "count": 5952,
      "max": [
        -0.8637949824333191,
        1.2427829504013062,
        1.2333600521087646
      ],
      "min": [
        -1.8360940217971802,
        0.16060799360275269,
        0.006018000189214945
      ],
      "type": "VEC3"
    },
    {
      "bufferView": 2,
      "byteOffset": 320640,
      "componentType": 5126,
      "count": 5952,
      "max": [
        0.9999982118606567,
        0.9999982118606567,
        1.0
      ],
      "min": [
        -0.9999982118606567,
        -0.9999982118606567,
        -1.0
      ],
      "type": "VEC3"
    },
    {
      "bufferView": 3,
      "byteOffset": 166144,
      "componentType": 5126,
      "count": 5952,
      "max": [
        0.9999988675117493,
        0.9999998807907104,
        0.9998489022254944,
        1.0
      ],
      "min": [
        -0.9999982714653015,
        -0.9999982714653015,
        -1.0,
        -1.0
      ],
      "type": "VEC4"
    },
    {
      "bufferView": 1,
      "byteOffset": 83072,
      "componentType": 5126,
      "count": 5952,
      "max": [
        0.9997490048408508,
        0.9930269718170166
      ],
      "min": [
        0.009053000248968601,
        0.00025099999038502574
      ],
      "type": "VEC2"
    },
    {
      "bufferView": 0,
      "byteOffset": 122784,
      "componentType": 5125,
      "count": 14598,
      "type": "SCALAR"
    },
    {
      "bufferView": 2,
      "byteOffset": 392064,
      "componentType": 5126,
      "count": 3840,
      "max": [
        -0.8557800054550171,
        2.7113258838653564,
        0.9555590152740479
      ],
      "min": [
        -2.77934193611145,
        1.36940598487854,
        -0.014550999738276005
      ],
      "type": "VEC3"
    },
    {
      "bufferView": 2,
      "byteOffset": 438144,
      "componentType": 5126,
      "count": 3840,
      "max": [
        0.9997878670692444,
        0.9999194145202637,
        1.0
      ],
      "min": [
        -0.9997878670692444,
        -0.9997878670692444,
        -1.0
      ],
      "type": "VEC3"
    },
    {
      "bufferView": 3,
      "byteOffset": 261376,
      "componentType": 5126,
      "count": 3840,
      "max": [
        0.9999997019767761,
        0.9997878670692444,
        0.9998489022254944,
        1.0
      ],
      "min": [
        -0.9999995827674866,
        -0.9999300241470337,
        -1.0,
        -1.0
      ],
      "type": "VEC4"
    },
    {
      "bufferView": 1,
      "byteOffset": 130688,
      "componentType": 5126,
      "count": 3840,
      "max": [
        0.9997490048408508,
        0.9930269718170166
      ],
      "min": [
        0.009053000248968601,
        0.00025099999038502574
      ],
      "type": "VEC2"
    },
    {
      "bufferView": 0,
      "byteOffset": 181176,
      "componentType": 5125,
      "count": 10242,
      "type": "SCALAR"
    },
    {
      "bufferView": 2,
      "byteOffset": 484224,
      "componentType": 5126,
      "count": 2304,
      "max": [
        -0.8542119860649109,
        3.405339002609253,
        0.9555590152740479
      ],
      "min": [
        -2.389892101287842,
        2.0438179969787598,
        -0.026554999873042107
      ],
      "type": "VEC3"
    },
    {
      "bufferView": 2,
      "byteOffset": 511872,
      "componentType": 5126,
      "count": 2304,
      "max": [
        1.0,
        0.9997071623802185,
        1.0
      ],
      "min": [
        -0.9997071623802185,
        -0.9997071623802185,
        -1.0
      ],
      "type": "VEC3"
    },
    {
      "bufferView": 3,
      "byteOffset": 322816,
      "componentType": 5126,
      "count": 2304,
      "max": [
        0.9989000558853149,
        1.0,
        0.9998489022254944,
        1.0
      ],
      "min": [
        -0.9999949336051941,
        -0.9999994039535522,
        -1.0,
        -1.0
      ],
      "type": "VEC4"
    },
    {
      "bufferView": 1,
      "byteOffset": 161408,
      "componentType": 5126,
      "count": 2304,
      "max": [
        0.9997490048408508,
        0.9930269718170166
      ],
      "min": [
        0.009053000248968601,
        0.00025099999038502574
      ],
      "type": "VEC2"
    },
    {
      "bufferView": 0,
      "byteOffset": 222144,
      "componentType": 5125,
      "count": 7074,
      "type": "SCALAR"
    }
  ],
  "asset": {
    "extras": {
      "author": "Gnossiennes (https://sketchfab.com/Gnossiennes)",
      "license": "CC-BY-4.0 (http://creativecommons.org/licenses/by/4.0/)",
      "source": "https://sketchfab.com/3d-models/pack-of-urns-29e24c485ee64fc6afba433ce64e1243",
      "title": "Pack of urns"
    },
    "generator": "Sketchfab-15.98.0",
    "version": "2.0"
  },
  "bufferViews": [
    {
      "buffer": 0,
      "byteLength": 250440,
      "name": "floatBufferViews",
      "target": 34963
    },
    {
      "buffer": 0,
      "byteLength": 179840,
      "byteOffset": 250440,
      "byteStride": 8,
      "name": "floatBufferViews",
      "target": 34962
    },
    {
      "buffer": 0,
      "byteLength": 539520,
      "byteOffset": 430280,
      "byteStride": 12,
      "name": "floatBufferViews",
      "target": 34962
    },
    {
      "buffer": 0,
      "byteLength": 359680,
      "byteOffset": 969800,
      "byteStride": 16,
      "name": "floatBufferViews",
      "target": 34962
    }
  ],
  "buffers": [
    {
      "byteLength": 1329480,
      "uri": "scene.bin"
    }
  ],
  "extensionsUsed": [
    "KHR_materials_specular"
  ],
  "images": [
    {
      "uri": "textures/Urn1_baseColor.png"
    },
    {
      "uri": "textures/Urn1_metallicRoughness.png"
    },
    {
      "uri": "textures/Urn1_normal.png"
    },
    {
      "uri": "textures/ground_baseColor.png"
    },
    {
      "uri": "textures/ground_metallicRoughness.png"
    },
    {
      "uri": "textures/ground_normal.png"
    },
    {
      "uri": "textures/urn2_baseColor.png"
    },
    {
      "uri": "textures/urn2_metallicRoughness.png"
    },
    {
      "uri": "textures/urn2_normal.png"
    },
    {
      "uri": "textures/urn3_baseColor.png"
    },
    {
      "uri": "textures/urn3_metallicRoughness.png"
    },
    {
      "uri": "textures/urn3_normal.png"
    },
    {
      "uri": "textures/urn4_baseColor.png"
    },
    {
      "uri": "textures/urn4_metallicRoughness.png"
    },
    {
      "uri": "textures/urn4_normal.png"
    },
    {
      "uri": "textures/urn5_baseColor.png"
    },
    {
      "uri": "textures/urn5_metallicRoughness.png"
    },
    {
      "uri": "textures/urn5_normal.png"
    },
    {
      "uri": "textures/urn6_baseColor.png"
    },
    {
      "uri": "textures/urn6_metallicRoughness.png"
    },
    {
      "uri": "textures/urn6_normal.png"
    },
    {
      "uri": "textures/urn7_baseColor.png"
    },
    {
      "uri": "textures/urn7_metallicRoughness.png"
    },
    {
      "uri": "textures/urn7_normal.png"
    }
  ],
  "materials": [
    {
      "doubleSided": true,
      "extensions": {
        "KHR_materials_specular": {
          "specularColorFactor": [
            1.0,
            1.0,
            1.0
          ],
          "specularFactor": 0.6323828796430617
        }
      },
      "name": "Urn1",
      "normalTexture": {
        "index": 2
      },
      "occlusionTexture": {
        "index": 1
      },
      "pbrMetallicRoughness": {
        "baseColorTexture": {
          "index": 0
        },
        "metallicRoughnessTexture": {
          "index": 1
        }
      }
    },
    {
      "doubleSided": true,
      "name": "ground",
      "normalTexture": {
        "index": 5
      },
      "pbrMetallicRoughness": {
        "baseColorTexture": {
          "index": 3
        },
        "metallicRoughnessTexture": {
          "index": 4
        },
        "roughnessFactor": 0.6994307030269045
      }
    },
    {
      "doubleSided": true,
      "extensions": {
        "KHR_materials_specular": {
          "specularColorFactor": [
            1.0,
            1.0,
            1.0
          ],
          "specularFactor": 0.7847642964245224
        }
      },
      "name": "urn2",
      "normalTexture": {
        "index": 8
      },
      "occlusionTexture": {
        "index": 7
      },
      "pbrMetallicRoughness": {
        "baseColorTexture": {
          "index": 6
        },
        "metallicRoughnessTexture": {
          "index": 7
        }
      }
    },
    {
      "doubleSided": true,
      "name": "urn3",
      "normalTexture": {
        "index": 11
      },
      "occlusionTexture": {
        "index": 10
      },
      "pbrMetallicRoughness": {
        "baseColorTexture": {
          "index": 9
        },
        "metallicRoughnessTexture": {
          "index": 10
        }
      }
    },
    {
      "doubleSided": true,
      "name": "urn4",
      "normalTexture": {
        "index": 14
      },
      "occlusionTexture": {
        "index": 13
      },
      "pbrMetallicRoughness": {
        "baseColorTexture": {
          "index": 12
        },
        "metallicRoughnessTexture": {
          "index": 13
        }
      }
    },
    {
      "doubleSided": true,
      "name": "urn5",
      "normalTexture": {
        "index": 17
      },
      "occlusionTexture": {
        "index": 16
      },
      "pbrMetallicRoughness": {
        "baseColorTexture": {
          "index": 15
        },
        "metallicRoughnessTexture": {
          "index": 16
        }
      }
    },
    {
      "doubleSided": true,
      "name": "urn6",
      "normalTexture": {
        "index": 20
      },
      "occlusionTexture": {
        "index": 19
      },
      "pbrMetallicRoughness": {
        "baseColorTexture": {
          "index": 18
        },
        "metallicRoughnessTexture": {
          "index": 19
        }
      }
    },
    {
      "doubleSided": true,
      "name": "urn7",
      "normalTexture": {
        "index": 23
      },
      "occlusionTexture": {
        "index": 22
      },
      "pbrMetallicRoughness": {
        "baseColorTexture": {
          "index": 21
        },
        "metallicRoughnessTexture": {
          "index": 22
        }
      }
    }
  ],
  "meshes": [
    {
      "name": "Object_0",
      "primitives": [
        {
          "attributes": {
            "NORMAL": 1,
            "POSITION": 0,
            "TANGENT": 2,
            "TEXCOORD_0": 3
          },
          "indices": 4,
          "material": 0,
          "mode": 4
        }
      ]
    },
    {
      "name": "Object_1",
      "primitives": [
        {
          "attributes": {
            "NORMAL": 6,
            "POSITION": 5,
            "TANGENT": 7,
            "TEXCOORD_0": 8
          },
          "indices": 9,
          "material": 1,
          "mode": 4
        }
      ]
    },
    {
      "name": "Object_2",
      "primitives": [
        {
          "attributes": {
            "NORMAL": 11,
            "POSITION": 10,
            "TANGENT": 12,
            "TEXCOORD_0": 13
          },
          "indices": 14,
          "material": 2,
          "mode": 4
        }
      ]
    },
    {
      "name": "Object_3",
      "primitives": [
        {
          "attributes": {
            "NORMAL": 16,
            "POSITION": 15,
            "TANGENT": 17,
            "TEXCOORD_0": 18
          },
          "indices": 19,
          "material": 3,
          "mode": 4
        }
      ]
    },
    {
      "name": "Object_4",
      "primitives": [
        {
          "attributes": {
            "NORMAL": 21,
            "POSITION": 20,
            "TANGENT": 22,
            "TEXCOORD_0": 23
          },
          "indices": 24,
          "material": 4,
          "mode": 4
        }
      ]
    },
    {
      "name": "Object_5",
      "primitives": [
        {
          "attributes": {
            "NORMAL": 26,
            "POSITION": 25,
            "TANGENT": 27,
            "TEXCOORD_0": 28
          },
          "indices": 29,
          "material": 5,
          "mode": 4
        }
      ]
    },
    {
      "name": "Object_6",
      "primitives": [
        {
          "attributes": {
            "NORMAL": 31,
            "POSITION": 30,
            "TANGENT": 32,
            "TEXCOORD_0": 33
          },
          "indices": 34,
          "material": 6,
          "mode": 4
        }
      ]
    },
    {
      "name": "Object_7",
      "primitives": [
        {
          "attributes": {
            "NORMAL": 36,
            "POSITION": 35,
            "TANGENT": 37,
            "TEXCOORD_0": 38
          },
          "indices": 39,
          "material": 7,
          "mode": 4
        }
      ]
    }
  ],
  "nodes": [
    {
      "children": [
        1
      ],
      "matrix": [
        1.0,
        0.0,
        0.0,
        0.0,
        0.0,
        2.220446049250313e-16,
        -1.0,
        0.0,
        0.0,
        1.0,
        2.220446049250313e-16,
        0.0,
        0.0,
        0.0,
        0.0,
        1.0
      ],
      "name": "Sketchfab_model"
    },
    {
      "children": [
        2,
        3,
        4,
        5,
        6,
        7,
        8,
        9
      ],
      "name": "Urn lp.obj.cleaner.materialmerger.gles"
    },
    {
      "mesh": 0,
      "name": "Object_2"
    },
    {
      "mesh": 1,
      "name": "Object_3"
    },
    {
      "mesh": 2,
      "name": "Object_4"
    },
    {
      "mesh": 3,
      "name": "Object_5"
    },
    {
      "mesh": 4,
      "name": "Object_6"
    },
    {
      "mesh": 5,
      "name": "Object_7"
    },
    {
      "mesh": 6,
      "name": "Object_8"
    },
    {
      "mesh": 7,
      "name": "Object_9"
    }
  ],
  "samplers": [
    {
      "magFilter": 9729,
      "minFilter": 9987,
      "wrapS": 10497,
      "wrapT": 10497
    }
  ],
  "scene": 0,
  "scenes": [
    {
      "name": "Sketchfab_Scene",
      "nodes": [
        0
      ]
    }
  ],
  "textures": [
    {
      "sampler": 0,
      "source": 0
    },
    {
      "sampler": 0,
      "source": 1
    },
    {
      "sampler": 0,
      "source": 2
    },
    {
      "sampler": 0,
      "source": 3
    },
    {
      "sampler": 0,
      "source": 4
    },
    {
      "sampler": 0,
      "source": 5
    },
    {
      "sampler": 0,
      "source": 6
    },
    {
      "sampler": 0,
      "source": 7
    },
    {
      "sampler": 0,
      "source": 8
    },
    {
      "sampler": 0,
      "source": 9
    },
    {
      "sampler": 0,
      "source": 10
    },
    {
      "sampler": 0,
      "source": 11
    },
    {
      "sampler": 0,
      "source": 12
    },
    {
      "sampler": 0,
      "source": 13
    },
    {
      "sampler": 0,
      "source": 14
    },
    {
      "sampler": 0,
      "source": 15
    },
    {
      "sampler": 0,
      "source": 16
    },
    {
      "sampler": 0,
      "source": 17
    },
    {
      "sampler": 0,
      "source": 18
    },
    {
      "sampler": 0,
      "source": 19
    },
    {
      "sampler": 0,
      "source": 20
    },
    {
      "sampler": 0,
      "source": 21
    },
    {
      "sampler": 0,
      "source": 22
    },
    {
      "sampler": 0,
      "source": 23
    }
  ]
}
